<svg xmlns="http://www.w3.org/2000/svg" viewBox="-13333 -4433 221.087 28.091">
  <defs>
    <style>
      .cls-1 {
        fill: #353848;
      }

      .cls-2 {
        fill: #fff;
      }

      .cls-3 {
        fill: #1e5d9b;
      }
    </style>
  </defs>
  <g id="logo2" transform="translate(-13333 -4433)">
    <g id="Group_187" data-name="Group 187">
      <g id="Group_186" data-name="Group 186">
        <g id="Group_184" data-name="Group 184">
          <path id="Path_312" data-name="Path 312" class="cls-1" d="M73.151,6.032h4.193v5.481a11.779,11.779,0,0,1-1.919.466,12.521,12.521,0,0,1-1.84.134,4.66,4.66,0,0,1-3.655-1.406,5.844,5.844,0,0,1-1.262-4.038,5.326,5.326,0,0,1,1.464-3.991,5.561,5.561,0,0,1,4.06-1.432,7.873,7.873,0,0,1,3.138.65L76.586,3.69a5.315,5.315,0,0,0-2.408-.579,2.969,2.969,0,0,0-2.328.977,3.785,3.785,0,0,0-.875,2.624,4.22,4.22,0,0,0,.705,2.629,2.441,2.441,0,0,0,2.05.907,7.207,7.207,0,0,0,1.424-.145V7.9h-2V6.032Z"/>
          <path id="Path_313" data-name="Path 313" class="cls-1" d="M80.306,11.969V1.4h2.241v8.72h4.288v1.851Z"/>
          <path id="Path_314" data-name="Path 314" class="cls-1" d="M98.709,6.669a5.735,5.735,0,0,1-1.3,4.034,5.64,5.64,0,0,1-7.461,0,5.754,5.754,0,0,1-1.3-4.049,5.677,5.677,0,0,1,1.305-4.03,4.877,4.877,0,0,1,3.742-1.393,4.811,4.811,0,0,1,3.727,1.4A5.753,5.753,0,0,1,98.709,6.669ZM91,6.669a4.418,4.418,0,0,0,.672,2.668,2.351,2.351,0,0,0,2.01.9q2.684,0,2.683-3.564T93.692,3.1a2.371,2.371,0,0,0-2.017.9A4.4,4.4,0,0,0,91,6.669Z"/>
          <path id="Path_315" data-name="Path 315" class="cls-1" d="M101.345,1.4h3.29a6.333,6.333,0,0,1,3.264.64,2.225,2.225,0,0,1,1.016,2.035,2.57,2.57,0,0,1-.443,1.555,1.782,1.782,0,0,1-1.183.73V6.43a2.332,2.332,0,0,1,1.45.838,2.734,2.734,0,0,1,.443,1.635,2.692,2.692,0,0,1-1.045,2.256,4.514,4.514,0,0,1-2.838.81h-3.954Zm2.241,4.186h1.3a2.391,2.391,0,0,0,1.32-.281,1.055,1.055,0,0,0,.408-.933.936.936,0,0,0-.444-.872,2.858,2.858,0,0,0-1.406-.264h-1.179Zm0,1.779v2.755h1.461a2.166,2.166,0,0,0,1.366-.354,1.308,1.308,0,0,0,.44-1.085q0-1.315-1.879-1.315h-1.388Z"/>
          <path id="Path_316" data-name="Path 316" class="cls-1" d="M118.209,11.969l-.767-2.517h-3.854l-.766,2.517h-2.415l3.731-10.614h2.74l3.744,10.614Zm-1.3-4.4q-1.062-3.418-1.2-3.868c-.09-.3-.153-.534-.191-.708q-.24.925-1.367,4.576h2.754Z"/>
          <path id="Path_317" data-name="Path 317" class="cls-1" d="M122.4,11.969V1.4h2.242v8.72h4.287v1.851Z"/>
          <path id="Path_318" data-name="Path 318" class="cls-1" d="M136.4,11.969h-.737V1.4h5.792v.68H136.4V6.56h4.772v.687H136.4v4.722Z"/>
          <path id="Path_319" data-name="Path 319" class="cls-1" d="M152.428,6.669a5.9,5.9,0,0,1-1.258,3.98,4.837,4.837,0,0,1-6.934,0,5.928,5.928,0,0,1-1.258-3.995,5.82,5.82,0,0,1,1.269-3.973,4.367,4.367,0,0,1,3.467-1.45,4.323,4.323,0,0,1,3.464,1.457A5.911,5.911,0,0,1,152.428,6.669Zm-8.647,0a5.415,5.415,0,0,0,1.012,3.511,4.053,4.053,0,0,0,5.824.01,5.421,5.421,0,0,0,1.008-3.521,5.366,5.366,0,0,0-1.008-3.5,4.063,4.063,0,0,0-5.813.01A5.318,5.318,0,0,0,143.781,6.669Z"/>
          <path id="Path_320" data-name="Path 320" class="cls-1" d="M156.04,7.363v4.605H155.3V1.4h2.516a4.731,4.731,0,0,1,2.906.727,2.59,2.59,0,0,1,.94,2.187,2.853,2.853,0,0,1-.561,1.793,3.112,3.112,0,0,1-1.7,1.049l2.87,4.815h-.882l-2.727-4.605H156.04Zm0-.636h2.017a3.207,3.207,0,0,0,2.075-.6,2.128,2.128,0,0,0,.738-1.76,2.065,2.065,0,0,0-.724-1.758,3.947,3.947,0,0,0-2.356-.549h-1.75Z"/>
          <path id="Path_321" data-name="Path 321" class="cls-1" d="M170.322,11.969h-5.776V1.4h5.776v.68h-5.039v4h4.758v.68h-4.758v4.533h5.039Z"/>
          <path id="Path_322" data-name="Path 322" class="cls-1" d="M177.672,1.911a4,4,0,0,0-3.131,1.272A5.028,5.028,0,0,0,173.4,6.668a5.22,5.22,0,0,0,1.077,3.514,3.845,3.845,0,0,0,3.08,1.251,8.331,8.331,0,0,0,2.444-.34v.65a7.973,7.973,0,0,1-2.618.369,4.452,4.452,0,0,1-3.506-1.438,5.84,5.84,0,0,1-1.28-4.021,6.318,6.318,0,0,1,.611-2.842,4.414,4.414,0,0,1,1.757-1.9,5.187,5.187,0,0,1,2.664-.669,6.411,6.411,0,0,1,2.77.578l-.3.666A5.362,5.362,0,0,0,177.672,1.911Z"/>
          <path id="Path_323" data-name="Path 323" class="cls-1" d="M191.688,6.669a5.9,5.9,0,0,1-1.258,3.98,4.838,4.838,0,0,1-6.935,0,5.933,5.933,0,0,1-1.258-3.995,5.825,5.825,0,0,1,1.269-3.973,4.371,4.371,0,0,1,3.468-1.45,4.322,4.322,0,0,1,3.463,1.457A5.911,5.911,0,0,1,191.688,6.669Zm-8.648,0a5.415,5.415,0,0,0,1.012,3.511,4.053,4.053,0,0,0,5.824.01,5.416,5.416,0,0,0,1.009-3.521,5.36,5.36,0,0,0-1.009-3.5,4.062,4.062,0,0,0-5.812.01A5.314,5.314,0,0,0,183.04,6.669Z"/>
          <path id="Path_324" data-name="Path 324" class="cls-1" d="M202.334,1.4v6.84a3.8,3.8,0,0,1-1.056,2.849,4.042,4.042,0,0,1-2.943,1.026,3.875,3.875,0,0,1-2.866-1.03,3.881,3.881,0,0,1-1.03-2.874V1.4h.744v6.84a3.214,3.214,0,0,0,.847,2.375,3.227,3.227,0,0,0,2.393.85,3.16,3.16,0,0,0,2.343-.835,3.139,3.139,0,0,0,.832-2.317V1.4Z"/>
          <path id="Path_325" data-name="Path 325" class="cls-1" d="M206.394,7.363v4.605h-.737V1.4h2.516a4.731,4.731,0,0,1,2.906.727,2.59,2.59,0,0,1,.94,2.187,2.853,2.853,0,0,1-.561,1.793,3.112,3.112,0,0,1-1.7,1.049l2.87,4.815h-.882l-2.727-4.605h-2.623Zm0-.636h2.017a3.207,3.207,0,0,0,2.075-.6,2.128,2.128,0,0,0,.738-1.76,2.065,2.065,0,0,0-.724-1.758,3.947,3.947,0,0,0-2.356-.549h-1.75Z"/>
          <path id="Path_326" data-name="Path 326" class="cls-1" d="M217.653,11.969h-.744V2.092h-3.435V1.4h7.613v.693h-3.435v9.878Z"/>
        </g>
        <g id="Group_185" data-name="Group 185">
          <path id="Path_327" data-name="Path 327" class="cls-1" d="M73.145,24.972a1.928,1.928,0,0,1-.726,1.59,3.157,3.157,0,0,1-2.021.58,4.74,4.74,0,0,1-2.109-.448V25.227a8.726,8.726,0,0,0,1.276.474,3.768,3.768,0,0,0,.956.138,1.354,1.354,0,0,0,.8-.2.678.678,0,0,0,.277-.591.657.657,0,0,0-.122-.39,1.366,1.366,0,0,0-.359-.329,9.277,9.277,0,0,0-.965-.5,4.542,4.542,0,0,1-1.024-.617,2.292,2.292,0,0,1-.545-.688,1.962,1.962,0,0,1-.2-.917,1.93,1.93,0,0,1,.67-1.555,2.783,2.783,0,0,1,1.852-.565,4.363,4.363,0,0,1,1.108.138,7.632,7.632,0,0,1,1.1.388l-.51,1.228a7.491,7.491,0,0,0-.986-.341,3.158,3.158,0,0,0-.767-.1,1.018,1.018,0,0,0-.688.209.69.69,0,0,0-.24.546.669.669,0,0,0,.1.364,1.085,1.085,0,0,0,.309.3,9.35,9.35,0,0,0,1,.521,3.983,3.983,0,0,1,1.432,1A1.954,1.954,0,0,1,73.145,24.972Z"/>
          <path id="Path_328" data-name="Path 328" class="cls-1" d="M95.689,19.591v4.82a2.774,2.774,0,0,1-.37,1.447,2.4,2.4,0,0,1-1.067.952,3.815,3.815,0,0,1-1.651.331A3.157,3.157,0,0,1,90.37,26.4a2.609,2.609,0,0,1-.795-2.015v-4.8h1.574v4.561a1.912,1.912,0,0,0,.347,1.264,1.441,1.441,0,0,0,1.146.4,1.41,1.41,0,0,0,1.124-.405,1.924,1.924,0,0,0,.349-1.271v-4.55Z"/>
          <path id="Path_329" data-name="Path 329" class="cls-1" d="M117.791,21.914a2.282,2.282,0,0,1-.752,1.84,3.215,3.215,0,0,1-2.138.637h-.678V27.04h-1.579V19.591h2.379a3.163,3.163,0,0,1,2.061.583A2.128,2.128,0,0,1,117.791,21.914ZM114.224,23.1h.52a1.742,1.742,0,0,0,1.091-.288,1.011,1.011,0,0,0,.361-.838,1.036,1.036,0,0,0-.3-.821,1.427,1.427,0,0,0-.951-.265h-.718Z"/>
          <path id="Path_330" data-name="Path 330" class="cls-1" d="M139.475,21.914a2.282,2.282,0,0,1-.752,1.84,3.215,3.215,0,0,1-2.138.637h-.678V27.04h-1.579V19.591h2.379a3.163,3.163,0,0,1,2.061.583A2.131,2.131,0,0,1,139.475,21.914ZM135.907,23.1h.52a1.742,1.742,0,0,0,1.091-.288,1.011,1.011,0,0,0,.361-.838,1.036,1.036,0,0,0-.3-.821,1.427,1.427,0,0,0-.951-.265h-.718Z"/>
          <path id="Path_331" data-name="Path 331" class="cls-1" d="M156.011,27.04V19.591h1.579v6.145h3.022v1.305h-4.6Z"/>
          <path id="Path_332" data-name="Path 332" class="cls-1" d="M177.037,27.04V19.591h1.579V27.04Z"/>
          <path id="Path_333" data-name="Path 333" class="cls-1" d="M199.913,27.04h-4.29V19.591h4.29v1.294H197.2v1.636h2.522v1.294H197.2v1.921h2.711Z"/>
          <path id="Path_334" data-name="Path 334" class="cls-1" d="M221,24.972a1.926,1.926,0,0,1-.727,1.59,3.152,3.152,0,0,1-2.02.58,4.747,4.747,0,0,1-2.11-.448V25.227a8.811,8.811,0,0,0,1.276.474,3.774,3.774,0,0,0,.956.138,1.352,1.352,0,0,0,.8-.2.677.677,0,0,0,.278-.591.651.651,0,0,0-.123-.39,1.36,1.36,0,0,0-.358-.329,9.327,9.327,0,0,0-.966-.5,4.565,4.565,0,0,1-1.024-.617,2.292,2.292,0,0,1-.545-.688,1.962,1.962,0,0,1-.2-.917,1.93,1.93,0,0,1,.67-1.555,2.786,2.786,0,0,1,1.853-.565,4.357,4.357,0,0,1,1.108.138,7.622,7.622,0,0,1,1.1.388l-.509,1.228a7.542,7.542,0,0,0-.986-.341,3.151,3.151,0,0,0-.767-.1,1.018,1.018,0,0,0-.688.209.692.692,0,0,0-.239.546.669.669,0,0,0,.1.364,1.085,1.085,0,0,0,.309.3,9.351,9.351,0,0,0,1,.521,3.983,3.983,0,0,1,1.432,1A1.953,1.953,0,0,1,221,24.972Z"/>
        </g>
      </g>
    </g>
    <g id="Group_189" data-name="Group 189">
      <g id="Group_188" data-name="Group 188">
        <path id="Path_335" data-name="Path 335" class="cls-1" d="M14.127,3.834a15.365,15.365,0,0,1,5.442,1.021V.684A20.6,20.6,0,0,0,14.243,0Q7.586,0,3.792,3.731T0,14.054q0,6.69,3.365,10.364t9.567,3.67a33.379,33.379,0,0,0,4.9-.334c.571-.087,1.148-.191,1.731-.318V12.894H12.522v3.832h5.66v7.046a21.547,21.547,0,0,1-4.634.543,8.291,8.291,0,0,1-6.59-2.608Q4.674,19.1,4.673,14.095A10.62,10.62,0,0,1,7.212,6.581,8.955,8.955,0,0,1,14.127,3.834Z"/>
        <path id="Path_336" data-name="Path 336" class="cls-2" d="M22.351,1.646,20.782,5.362c-.4-.185-.809-.352-1.212-.508V.684A20.056,20.056,0,0,1,22.351,1.646Z"/>
        <path id="Path_337" data-name="Path 337" class="cls-2" d="M22.576,12.894V26.617c-1.028.329-2.031.606-3.007.819V12.894Z"/>
        <path id="Path_338" data-name="Path 338" class="cls-1" d="M31.064,4.169a6.32,6.32,0,0,1,1.754-2.2A8.4,8.4,0,0,1,35.9.435V.4H20.48V21.372h4.433V16.5h10.3V14.568a11.344,11.344,0,0,1-2.66-1.858H24.913V4.17h6.151Z"/>
        <path id="Path_339" data-name="Path 339" class="cls-1" d="M49.1,20.3a6.873,6.873,0,0,1-2.635,5.719,11.461,11.461,0,0,1-7.27,2.075,17.34,17.34,0,0,1-7.588-1.439V22.428a20.521,20.521,0,0,0,3.972,1.383,16.8,16.8,0,0,0,3.915.5,6.231,6.231,0,0,0,3.915-1.009A3.291,3.291,0,0,0,44.676,20.6,3.4,3.4,0,0,0,43.518,18a17.442,17.442,0,0,0-4.785-2.523,12.666,12.666,0,0,1-5.271-3.457A7.315,7.315,0,0,1,31.93,7.346a6.548,6.548,0,0,1,2.431-5.384A10.076,10.076,0,0,1,40.883,0,19.172,19.172,0,0,1,48.7,1.719l-1.42,3.645a17.087,17.087,0,0,0-6.505-1.532,4.993,4.993,0,0,0-3.289.944A3.1,3.1,0,0,0,36.36,7.27a3.515,3.515,0,0,0,.448,1.823,4.587,4.587,0,0,0,1.477,1.43,24.808,24.808,0,0,0,3.7,1.775,20.2,20.2,0,0,1,4.41,2.337,6.871,6.871,0,0,1,2.056,2.447A7.353,7.353,0,0,1,49.1,20.3Z"/>
        <circle id="Ellipse_76" data-name="Ellipse 76" class="cls-3" cx="2.206" cy="2.206" r="2.206" transform="translate(20.461 22.629)"/>
      </g>
      <path id="Path_340" data-name="Path 340" class="cls-3" d="M42.45,8.647s30.141,4.315,3.023,9.628C18.4,23.582,28.015,22.414,28.015,22.414S91.039,14.832,42.45,8.647Z"/>
    </g>
  </g>
</svg>
