<?xml version="1.0" encoding="utf-8"?>
<!-- Generator: Adobe Illustrator 19.2.1, SVG Export Plug-In . SVG Version: 6.00 Build 0)  -->
<svg version="1.1" id="Layer_1" xmlns="http://www.w3.org/2000/svg" xmlns:xlink="http://www.w3.org/1999/xlink" x="0px" y="0px"
	 viewBox="0 0 822.7 733.3" style="enable-background:new 0 0 822.7 733.3;" xml:space="preserve">
<style type="text/css">
	.st0{fill-rule:evenodd;clip-rule:evenodd;fill:#FFFFFF;}
	.st1{fill:#FFFFFF;}
</style>
<path class="st0" d="M478.1,370.5L478.1,370.5c5.6,0.6,18.7-6.5,20.9-11.1C491.8,363.3,485.5,366.6,478.1,370.5 M402.2,49.9
	L402.2,49.9c-4.9,0-9.7-0.2-14.6,0.1c-4.6,0.2-9.4-1-13.8,1.3C383.3,52.6,392.7,50.7,402.2,49.9z M308.7,320.6L308.7,320.6
	c-1.1-5.1-12.4-15.4-16.6-16.7c-0.1,0.5-0.6,1.4-0.4,1.6C297.4,310.6,303.1,315.6,308.7,320.6z M270.2,99.4L270.2,99.4
	c-4.4,3.9-12.2,18.3-12.3,22.2C261.6,118.5,269.7,104.3,270.2,99.4z M238.7,213.3L238.7,213.3c-0.4,0.1-0.8,0.1-1.2,0.2
	c-0.6,8.9-0.9,17.7,4.2,25.8C240.7,230.6,239.7,221.9,238.7,213.3z M228.9,172.5L228.9,172.5c1.9-8.2,3.8-16.4,5.7-24.5
	C228,155.1,226.9,163.5,228.9,172.5z M285,95.3L285,95.3c7.8-5.9,15.3-12.1,23.3-19.2c-1.9-0.5-2.7-1-3.1-0.8
	C301,77.3,285.3,92.2,285,95.3z M547.1,169.7L547.1,169.7c0.4-0.2,0.8-0.4,1.2-0.5c0.3-10.8-5.1-19.3-11-27.4
	c-0.4,0.2-0.9,0.4-1.3,0.5C539.7,151.5,543.4,160.6,547.1,169.7z M277.4,83.6L277.4,83.6c5.2-2.2,20.7-14.3,22.8-17.7
	C290.9,66.9,279,76.2,277.4,83.6z M460.4,62.1L460.4,62.1c13,7.7,26.1,15.4,39.1,23.2c0.2-0.3,0.4-0.7,0.6-1
	C488.1,74.6,475.3,66.6,460.4,62.1z M248,267.7L248,267.7c0.5,10.6,11.6,31.1,19.9,36.9C261.1,292.1,254.9,280.4,248,267.7z
	 M564.4,175.1L564.4,175.1c0.4-13.9-8.7-38.1-16.6-45C553.5,145.6,558.9,160.3,564.4,175.1z M300.1,62.3L300.1,62.3
	c12-7.1,24-14.2,36-21.3C326.7,40.2,301.9,54.7,300.1,62.3z M550.7,314.1L550.7,314.1c1.9,2.8,3,1.5,4.1,0.3
	c9.4-10.4,17.9-21.4,23.7-34.3c0.4-0.9,0.5-2,0.8-3c-0.2-0.1-0.5-0.2-0.7-0.3C569.3,289.2,560,301.6,550.7,314.1z M386.7,25.4
	L386.7,25.4c7,1.8,58.6,1.4,62.6-0.3C428.2,18.7,407.5,20.1,386.7,25.4z M235.4,129.9L235.4,129.9c10-13.2,19.5-26.7,29.6-41.3
	C251,93.9,234.9,116.6,235.4,129.9z M281.8,297.9L281.8,297.9c0.3-4.6-2.9-7.6-4.5-11.2c-1.6-3.6-3.5-7.1-5.3-10.6
	c-1.9-3.7-3.8-7.4-5.6-11.1c-1.8-3.5-3.6-7-5.4-10.5c-1.8-3.4-3.3-7.1-5.8-10.1C256.5,264.2,271.4,293.9,281.8,297.9z M574.5,117.8
	L574.5,117.8c1.5,10.3,21.1,72.8,23.7,76.2C596.9,166.3,588.6,141.2,574.5,117.8z M360.2,377.2L360.2,377.2
	c-29.2-12.8-56.8-28.3-80.9-49.7C300.5,353.8,327.5,370.3,360.2,377.2z M476.7,63.4L476.7,63.4c10.7,8,21.6,15.3,31.6,23.8
	c9.9,8.6,18.9,18.4,28.8,28.1C530.9,93.8,492.2,63.1,476.7,63.4z M503.9,65.7L503.9,65.7c-5.9-18.7-50.8-38.5-72.7-34
	C458.1,38.2,481.6,49.1,503.9,65.7z M589.7,199.8L589.7,199.8c-0.7,7.2-1.2,14.5-2.3,21.7c-1.2,7.4-2.8,14.8-4.8,22
	c-1.9,7-4.4,13.9-7.1,20.7c-2.6,6.8-5.8,13.3-8.7,20c0.4,0.3,0.8,0.5,1.1,0.8c0.4-0.7,0.8-1.4,1.3-2c14.4-17.6,22.4-37.9,24.3-60.6
	C594.2,214.6,593.7,206.9,589.7,199.8z M254,118.3L254,118.3c-0.7-0.1-1.3-0.3-2-0.4c-15.9,24.9-21,52.7-20.9,81.8
	c0.4,0.1,0.8,0.2,1.1,0.3C239.5,172.8,246.7,145.6,254,118.3z M583,117.9L583,117.9c-18.8-40.5-49.1-68.4-90.2-84.4
	C560.5,81.3,552.6,79.4,583,117.9z M358,406L358,406c39.2,7.5,76.2,1,111.2-17.9c-18.4,4.2-36.5,10-55,13
	C395.7,404.1,376.7,404.5,358,406z M410.5,15.4L410.5,15.4c-22.6-10.9-75.3,4-93.7,25.8C346.2,27.4,376.9,18.2,410.5,15.4z
	 M254.7,83.7L254.7,83.7c0.2,0.3,0.5,0.7,0.7,1c26.1-20.7,52.1-41.5,78.2-62.3C300.4,34,274.4,54.8,254.7,83.7z M555.2,190.1
	L555.2,190.1c0.1,21.5,0.1,42.9-3.7,64.1c-3.8,21.4-10.9,41.4-21.7,60.3c0.8-0.3,1.5-0.6,1.8-1.2c2.7-3.6,5.6-7.1,7.9-11
	c17-28.9,23.8-60.3,21-93.8C560.1,202.1,558.9,195.8,555.2,190.1z M568.5,122.4L568.5,122.4c-12.9-33.1-34.3-57.9-67.7-71
	c8.3,10,16.6,19.9,26.1,28.6C541.4,93.5,556.6,106.1,568.5,122.4z M472.6,51.9L472.6,51.9c-29.8-22.7-94-26.5-118.6-6.9
	C394.4,40.6,434,37,472.6,51.9z M232.9,331.1L232.9,331.1c-0.3-0.5-0.5-1.1-0.8-1.6c-25.2-39.7-31.8-83-24.8-129.2
	c3-20,7.8-39.5,14.4-58.6c0.5-1.4,0.8-2.9,1.2-4.4C184.9,188.2,186.7,280.1,232.9,331.1z M540.6,100.9L540.6,100.9
	c15.8,23.8,27.7,49.2,33.1,77.5c5.4,28.3,2.9,56.3-3.4,84.5c0.7-0.4,1.1-0.5,1.3-0.8c0.6-1.2,1.3-2.4,1.9-3.7
	c10.5-25.3,15.1-51.5,12-78.9C581.7,146.6,564.7,121.7,540.6,100.9z M309.5,326.5L309.5,326.5c0.3,1.2,0.4,1.9,0.6,2.3
	c1.2,1.8,2.4,3.6,3.8,5.3c8.7,10.7,19.7,18,32.1,23.3c33.7,14.5,68.7,17.3,104.6,10.2c14.9-3,28.9-8.4,41.3-17.5
	c1.8-1.4,3.5-2.9,5.2-4.4c-2.8,0-5.2,0.8-7.5,1.6c-38.6,13.4-77.8,15.3-116.9,3.2c-19.6-6-38.4-14.5-57.6-21.8
	C313.4,328.1,311.7,327.4,309.5,326.5z M400.5,6.5L400.5,6.5c1.1,0.3,2.2,0.8,3.3,1c17.7,3.8,35.5,7.7,53.3,11.2
	c65.5,13.2,112,49.9,136.8,113.4c1.7,4.4,3.3,8.8,5.2,14c0-32.4-30.3-81.7-66.3-107.7C493,9.8,449.1-2,400.5,6.5z M221.1,179.4
	L221.1,179.4c-0.4-0.1-0.8-0.1-1.2-0.2c-1.3,2.8-2.8,5.4-3.8,8.3c-4.3,12-4.5,24.5-3.1,37c1.9,17.1,6.8,33.3,13.6,49
	c10.3,23.8,24,45.4,42.4,63.6c10,9.9,21.1,18.2,34.4,23.3c1.1,0.4,2.2,0.5,3.4,0.7c-1.8-2.3-3.8-3.8-5.8-5.4c-2-1.5-4-3.1-6-4.7
	c-22.1-18-39.6-39.6-49.1-66.8c-10.6-30.5-18.8-61.6-23-93.7C222.3,186.7,221.7,183.1,221.1,179.4z M421.9,392.5L421.9,392.5
	c-0.1-0.5-0.2-1-0.3-1.5c-22.3-0.1-44.4-2.4-66.2-7.4c-29.3-6.8-56.4-18.5-80-37.7c-25.4-20.7-43.1-47.1-55.8-77.3
	c-0.9-2.1-1.8-4.1-2.7-6.1c2.4,16.5,7.6,31.9,15.2,46.5c19.5,37.8,50,63.3,88.3,79.7c27.8,11.9,56.5,14.7,86,8
	C411.6,395.5,416.7,393.9,421.9,392.5z M376.4,59.7L376.4,59.7c-1.3-0.5-1.5-0.7-1.6-0.7c-0.8,0-1.6,0-2.3,0.1
	c-24.4,2.9-47.2,10.7-66,26.8c-41.9,35.9-60.1,81.8-53.8,137.2c1.2,10.5,4.3,20.5,10.2,29.5c1.1,1.7,2.5,3.2,4.5,5.6
	c0-2.6,0.1-3.8,0-5c-2.2-19-2.4-37.9,0.1-56.9c4.5-34.4,18-64.5,41.7-89.8c17.6-18.8,38.6-32.7,61.4-44
	C372.3,61.8,374,60.9,376.4,59.7z M551.7,224.9L551.7,224.9C521,305.5,463,345.4,379,348.6c1.3,0.7,2.7,1.2,4.2,1.5
	c40.8,9.4,80.3,5.8,118.5-11.8c7-3.2,12.6-7.8,17-14.1c17-23.7,27.5-50,31.3-79C550.9,238.5,551.2,231.7,551.7,224.9z M394.4,342.1
	L394.4,342.1c5.5-0.7,16.1-1.2,26.3-3.7c62.5-15.5,105.1-52.8,123-116.6c4.1-14.7,5.8-29.6,2.1-44.6c-7-28.7-20.8-53.7-41.7-74.4
	c-22-21.9-48.9-34.3-78.6-41.3c-12.4-2.9-24.9-3.8-37,0.4c-10.3,3.5-20.9,7-30.4,12.2c-44.2,23.8-71.2,61.2-83.5,110
	c-5.9,23.4-6,47-2.2,70.7c3.4,21.6,15.2,38.3,30.1,53.2C326.6,331.9,356.2,341.5,394.4,342.1z M606.3,202.3
	c-0.5,19.9-3.6,45.2-13,69.3c-14,35.9-35.5,65.9-67.3,87.8c-10.8,7.5-21.4,15.4-32.3,22.6c-26.3,17.3-55.1,28.1-86.5,31
	c-25.8,2.4-51.1-0.7-75.8-8.9c-30.8-10.2-59.1-25-83-47.5c-28.3-26.5-44.9-59.4-52.4-97.5c-9.5-48.5,1.2-92.6,27.8-133.4
	c6.3-9.7,12.4-19.7,17.9-30c24.8-46,62.8-73.7,112.9-85.1c19.4-4.4,38.9-8.5,58.9-10.1c68-5.4,146.2,28.8,179,111.6
	C603.2,139.2,607.3,167.4,606.3,202.3z"/>
<path class="st1" d="M184.6,514.1l-18.5,11.5c-16-21.2-37.8-31.9-65.5-31.9c-22.1,0-40.4,7.1-55,21.3
	c-14.6,14.2-21.9,31.5-21.9,51.8c0,13.2,3.4,25.6,10.1,37.3c6.7,11.7,15.9,20.7,27.6,27.1c11.7,6.4,24.8,9.7,39.4,9.7
	c26.7,0,48.4-10.6,65.3-31.9l18.5,12.2c-8.7,13.1-20.3,23.2-34.9,30.4c-14.6,7.2-31.3,10.8-49.9,10.8c-28.7,0-52.5-9.1-71.4-27.4
	C9.4,617,0,594.8,0,568.7c0-17.6,4.4-33.9,13.3-48.9c8.8-15,21-26.8,36.4-35.3c15.5-8.4,32.7-12.7,51.9-12.7c12,0,23.6,1.8,34.8,5.5
	c11.2,3.7,20.6,8.4,28.4,14.3C172.5,497.5,179.1,505,184.6,514.1"/>
<path class="st1" d="M315.2,494.6L315.2,494.6c-19.4,0-36.1,7.2-50,21.5c-13.9,14.3-20.9,31.7-20.9,52c0,13.1,3.2,25.3,9.5,36.7
	c6.4,11.3,14.9,20.1,25.8,26.2c10.8,6.2,22.7,9.3,35.6,9.3c12.9,0,24.8-3.1,35.6-9.3c10.8-6.2,19.4-14.9,25.8-26.2
	c6.4-11.4,9.5-23.6,9.5-36.7c0-20.3-7-37.7-21-52C351.2,501.8,334.5,494.6,315.2,494.6 M315.3,471.8c28,0,51.1,10.1,69.5,30.3
	c16.7,18.5,25.1,40.3,25.1,65.5c0,25.3-8.8,47.5-26.5,66.4c-17.6,18.9-40.3,28.5-68.1,28.5c-27.8,0-50.6-9.5-68.2-28.5
	c-17.6-18.9-26.5-41.1-26.5-66.4c0-25.1,8.3-46.9,25.1-65.4C264,482,287.2,471.8,315.3,471.8z"/>
<polygon class="st1" points="435.9,476.5 460.7,476.5 521.6,608.7 581.8,476.5 606.8,476.5 523.7,657.9 519.4,657.9 "/>
<path class="st1" d="M728.1,494.6L728.1,494.6c-19.4,0-36.1,7.2-50.1,21.5c-13.9,14.3-20.9,31.7-20.9,52c0,13.1,3.2,25.3,9.5,36.7
	c6.4,11.3,14.9,20.1,25.8,26.2c10.8,6.2,22.7,9.3,35.6,9.3c12.9,0,24.8-3.1,35.6-9.3c10.8-6.2,19.4-14.9,25.7-26.2
	c6.4-11.4,9.6-23.6,9.6-36.7c0-20.3-7-37.7-21-52C764,501.8,747.4,494.6,728.1,494.6 M728.1,471.8c28,0,51.1,10.1,69.5,30.3
	c16.7,18.5,25,40.3,25,65.5c0,25.3-8.8,47.5-26.5,66.4c-17.7,18.9-40.3,28.5-68.1,28.5c-27.8,0-50.6-9.5-68.2-28.5
	c-17.7-18.9-26.5-41.1-26.5-66.4c0-25.1,8.4-46.9,25.1-65.4C676.8,482,700.1,471.8,728.1,471.8z"/>
<path class="st1" d="M77.5,711.5L77.5,711.5c-1.7,0-3.2,0.4-4.7,1.2c-1.4,0.8-2.5,2-3.4,3.5c-0.8,1.5-1.3,3.1-1.3,4.7
	c0,1.7,0.4,3.2,1.3,4.7c0.8,1.5,2,2.7,3.4,3.5c1.4,0.8,3,1.3,4.6,1.3c1.7,0,3.2-0.4,4.7-1.2c1.5-0.8,2.6-2,3.4-3.4
	c0.8-1.4,1.2-3,1.2-4.8c0-2.7-0.9-5-2.7-6.8C82.3,712.4,80.1,711.5,77.5,711.5 M89.6,709.2v23.5h-3v-4c-1.3,1.5-2.7,2.7-4.3,3.5
	c-1.6,0.8-3.3,1.2-5.2,1.2c-3.3,0-6.2-1.2-8.5-3.6c-2.4-2.4-3.5-5.3-3.5-8.8c0-3.4,1.2-6.3,3.6-8.7c2.4-2.4,5.2-3.6,8.6-3.6
	c1.9,0,3.7,0.4,5.2,1.2c1.6,0.8,2.9,2,4.1,3.7v-4.3H89.6z"/>
<path class="st1" d="M110.7,709.2h3.1v3.4c0.9-1.4,1.9-2.4,2.9-3c1-0.7,2.1-1,3.2-1c0.8,0,1.7,0.3,2.7,0.8l-1.6,2.5
	c-0.6-0.3-1.2-0.4-1.6-0.4c-1,0-2,0.4-2.9,1.2c-0.9,0.8-1.6,2.1-2.1,3.8c-0.4,1.3-0.6,4-0.6,8.1v7.9h-3.1V709.2z"/>
<path class="st1" d="M163.4,714.1l-2.4,1.5c-2.1-2.7-4.9-4.1-8.5-4.1c-2.9,0-5.2,0.9-7.1,2.7c-1.9,1.8-2.8,4.1-2.8,6.7
	c0,1.7,0.4,3.3,1.3,4.8c0.9,1.5,2.1,2.7,3.6,3.5c1.5,0.8,3.2,1.2,5.1,1.2c3.4,0,6.3-1.4,8.4-4.1l2.4,1.6c-1.1,1.7-2.6,3-4.5,3.9
	c-1.9,0.9-4,1.4-6.5,1.4c-3.7,0-6.8-1.2-9.2-3.5c-2.4-2.4-3.7-5.2-3.7-8.6c0-2.3,0.6-4.4,1.7-6.3c1.1-1.9,2.7-3.5,4.7-4.6
	c2-1.1,4.2-1.6,6.7-1.6c1.6,0,3.1,0.2,4.5,0.7c1.4,0.5,2.7,1.1,3.7,1.8C161.8,711.9,162.7,712.9,163.4,714.1"/>
<path class="st1" d="M184.7,700.1h3v13.3c1.2-1.6,2.6-2.8,4-3.6c1.5-0.8,3.1-1.2,4.8-1.2c1.8,0,3.3,0.4,4.7,1.3
	c1.4,0.9,2.4,2.1,3,3.6c0.6,1.5,1,3.9,1,7.1v12.1h-3v-11.2c0-2.7-0.1-4.5-0.3-5.4c-0.4-1.6-1.1-2.7-2-3.5c-1-0.8-2.3-1.2-3.9-1.2
	c-1.8,0-3.5,0.6-4.9,1.8c-1.4,1.2-2.4,2.7-2.9,4.5c-0.3,1.2-0.4,3.3-0.4,6.4v8.6h-3V700.1z"/>
<path class="st1" d="M226.6,709.2L226.6,709.2h3v23.5h-3V709.2z M228.1,699.5c0.7,0,1.3,0.3,1.8,0.7c0.5,0.5,0.7,1.1,0.7,1.8
	c0,0.7-0.2,1.3-0.7,1.7c-0.5,0.5-1.1,0.7-1.8,0.7c-0.7,0-1.3-0.2-1.7-0.7c-0.5-0.5-0.7-1.1-0.7-1.7c0-0.7,0.2-1.3,0.7-1.8
	C226.9,699.8,227.4,699.5,228.1,699.5z"/>
<polygon class="st1" points="254,700.5 257,700.5 257,709.2 261.8,709.2 261.8,711.8 257,711.8 257,732.6 254,732.6 254,711.8 
	249.9,711.8 249.9,709.2 254,709.2 "/>
<path class="st1" d="M301.6,718.5L301.6,718.5c-0.4-1.6-1-2.9-1.8-3.9c-0.8-1-1.8-1.7-3.1-2.3c-1.3-0.6-2.6-0.9-4-0.9
	c-2.3,0-4.3,0.7-5.9,2.2c-1.2,1.1-2.1,2.7-2.7,4.9H301.6z M301.6,724.9l2.5,1.3c-0.8,1.6-1.8,3-2.9,4c-1.1,1-2.3,1.8-3.7,2.3
	c-1.4,0.5-2.9,0.8-4.6,0.8c-3.8,0-6.8-1.2-9-3.8c-2.2-2.5-3.2-5.3-3.2-8.5c0-3,0.9-5.6,2.7-8c2.3-3,5.4-4.4,9.3-4.4
	c4,0,7.2,1.5,9.6,4.5c1.7,2.1,2.6,4.8,2.6,8h-21.1c0.1,2.7,0.9,5,2.6,6.7c1.7,1.7,3.8,2.6,6.2,2.6c1.2,0,2.4-0.2,3.5-0.6
	c1.1-0.4,2.1-1,2.9-1.7C299.8,727.5,300.6,726.4,301.6,724.9z"/>
<path class="st1" d="M348.8,714.1l-2.4,1.5c-2.1-2.7-4.9-4.1-8.5-4.1c-2.9,0-5.2,0.9-7.1,2.7c-1.9,1.8-2.8,4.1-2.8,6.7
	c0,1.7,0.4,3.3,1.3,4.8c0.9,1.5,2.1,2.7,3.6,3.5c1.5,0.8,3.2,1.2,5.1,1.2c3.4,0,6.3-1.4,8.4-4.1l2.4,1.6c-1.1,1.7-2.6,3-4.5,3.9
	c-1.9,0.9-4,1.4-6.5,1.4c-3.7,0-6.8-1.2-9.2-3.5c-2.4-2.4-3.7-5.2-3.7-8.6c0-2.3,0.6-4.4,1.7-6.3c1.1-1.9,2.7-3.5,4.7-4.6
	c2-1.1,4.2-1.6,6.7-1.6c1.6,0,3.1,0.2,4.5,0.7c1.4,0.5,2.7,1.1,3.7,1.8C347.2,711.9,348.1,712.9,348.8,714.1"/>
<polygon class="st1" points="372.7,700.5 375.7,700.5 375.7,709.2 380.5,709.2 380.5,711.8 375.7,711.8 375.7,732.6 372.7,732.6 
	372.7,711.8 368.5,711.8 368.5,709.2 372.7,709.2 "/>
<path class="st1" d="M400.1,709.2h3v11c0,2.7,0.1,4.5,0.4,5.5c0.4,1.4,1.3,2.6,2.5,3.4c1.2,0.8,2.7,1.2,4.4,1.2
	c1.7,0,3.1-0.4,4.3-1.2c1.2-0.8,2-1.9,2.4-3.2c0.3-0.9,0.5-2.8,0.5-5.8v-11h3.1v11.5c0,3.2-0.4,5.7-1.1,7.3
	c-0.8,1.6-1.9,2.9-3.4,3.9c-1.5,0.9-3.4,1.4-5.7,1.4c-2.3,0-4.2-0.5-5.7-1.4c-1.5-0.9-2.7-2.2-3.4-3.9c-0.8-1.7-1.1-4.2-1.1-7.5
	V709.2z"/>
<path class="st1" d="M441.6,709.2h3.1v3.4c0.9-1.4,1.9-2.4,2.9-3c1-0.7,2.1-1,3.2-1c0.8,0,1.7,0.3,2.7,0.8l-1.6,2.5
	c-0.6-0.3-1.2-0.4-1.6-0.4c-1,0-2,0.4-2.9,1.2c-0.9,0.8-1.7,2.1-2.1,3.8c-0.4,1.3-0.6,4-0.6,8.1v7.9h-3.1V709.2z"/>
<path class="st1" d="M491.3,718.5L491.3,718.5c-0.4-1.6-1-2.9-1.8-3.9c-0.8-1-1.8-1.7-3.1-2.3c-1.3-0.6-2.6-0.9-4-0.9
	c-2.3,0-4.3,0.7-5.9,2.2c-1.2,1.1-2.1,2.7-2.7,4.9H491.3z M491.3,724.9l2.5,1.3c-0.8,1.6-1.8,3-2.9,4c-1.1,1-2.3,1.8-3.7,2.3
	c-1.4,0.5-2.9,0.8-4.6,0.8c-3.8,0-6.8-1.2-9-3.8c-2.2-2.5-3.2-5.3-3.2-8.5c0-3,0.9-5.6,2.7-8c2.3-3,5.4-4.4,9.3-4.4
	c4,0,7.2,1.5,9.6,4.5c1.7,2.1,2.6,4.8,2.6,8h-21.1c0.1,2.7,0.9,5,2.6,6.7c1.7,1.7,3.8,2.6,6.2,2.6c1.2,0,2.4-0.2,3.5-0.6
	c1.1-0.4,2.1-1,2.9-1.7C489.5,727.5,490.4,726.4,491.3,724.9z"/>
<path class="st1" d="M555.2,711.7l-1.9,2c-1.6-1.6-3.2-2.3-4.7-2.3c-1,0-1.8,0.3-2.5,1c-0.7,0.6-1.1,1.4-1.1,2.3
	c0,0.8,0.3,1.5,0.9,2.2c0.6,0.7,1.8,1.5,3.6,2.5c2.2,1.2,3.8,2.3,4.6,3.4c0.8,1.1,1.2,2.3,1.2,3.7c0,1.9-0.7,3.6-2,4.9
	c-1.3,1.3-3,2-5.1,2c-1.4,0-2.7-0.3-3.9-0.9c-1.2-0.6-2.3-1.4-3.1-2.4l1.9-2.2c1.5,1.7,3.2,2.6,4.9,2.6c1.2,0,2.2-0.4,3.1-1.2
	c0.9-0.8,1.3-1.7,1.3-2.7c0-0.9-0.3-1.6-0.8-2.3c-0.6-0.7-1.8-1.5-3.8-2.5c-2.1-1.1-3.6-2.2-4.3-3.2c-0.8-1.1-1.1-2.3-1.1-3.6
	c0-1.8,0.6-3.3,1.8-4.4c1.2-1.2,2.7-1.8,4.6-1.8C550.8,708.6,553,709.6,555.2,711.7"/>
<polygon class="st1" points="578.7,700.5 581.7,700.5 581.7,709.2 586.5,709.2 586.5,711.8 581.7,711.8 581.7,732.6 578.7,732.6 
	578.7,711.8 574.5,711.8 574.5,709.2 578.7,709.2 "/>
<path class="st1" d="M606.1,709.2h3v11c0,2.7,0.1,4.5,0.4,5.5c0.4,1.4,1.3,2.6,2.5,3.4c1.2,0.8,2.7,1.2,4.4,1.2
	c1.7,0,3.1-0.4,4.3-1.2c1.2-0.8,2-1.9,2.4-3.2c0.3-0.9,0.5-2.8,0.5-5.8v-11h3.1v11.5c0,3.2-0.4,5.7-1.1,7.3
	c-0.8,1.6-1.9,2.9-3.4,3.9c-1.5,0.9-3.4,1.4-5.7,1.4c-2.3,0-4.2-0.5-5.7-1.4c-1.5-0.9-2.7-2.2-3.4-3.9c-0.8-1.7-1.1-4.2-1.1-7.5
	V709.2z"/>
<path class="st1" d="M660.1,711.5L660.1,711.5c-1.7,0-3.2,0.4-4.7,1.2c-1.4,0.8-2.6,2-3.4,3.5c-0.8,1.5-1.3,3.1-1.3,4.7
	c0,1.7,0.4,3.2,1.3,4.7c0.8,1.5,2,2.7,3.4,3.5c1.4,0.8,3,1.3,4.6,1.3c1.6,0,3.2-0.4,4.7-1.2c1.5-0.8,2.6-2,3.4-3.4
	c0.8-1.4,1.2-3,1.2-4.8c0-2.7-0.9-5-2.7-6.8C664.9,712.4,662.7,711.5,660.1,711.5 M672.2,700.1v32.5h-3v-4c-1.3,1.5-2.7,2.7-4.3,3.5
	c-1.6,0.8-3.3,1.2-5.2,1.2c-3.3,0-6.2-1.2-8.5-3.6c-2.4-2.4-3.5-5.3-3.5-8.8c0-3.4,1.2-6.3,3.6-8.7c2.4-2.4,5.2-3.6,8.6-3.6
	c1.9,0,3.7,0.4,5.2,1.2c1.6,0.8,2.9,2,4.1,3.7v-13.4H672.2z"/>
<path class="st1" d="M694,709.2L694,709.2h3v23.5h-3V709.2z M695.5,699.5c0.7,0,1.3,0.3,1.8,0.7c0.5,0.5,0.7,1.1,0.7,1.8
	c0,0.7-0.2,1.3-0.7,1.7c-0.5,0.5-1.1,0.7-1.8,0.7c-0.7,0-1.3-0.2-1.7-0.7c-0.5-0.5-0.7-1.1-0.7-1.7c0-0.7,0.3-1.3,0.7-1.8
	C694.3,699.8,694.9,699.5,695.5,699.5z"/>
<path class="st1" d="M729.9,711.5L729.9,711.5c-2.5,0-4.7,0.9-6.5,2.8c-1.8,1.9-2.7,4.1-2.7,6.7c0,1.7,0.4,3.3,1.2,4.8
	c0.8,1.5,1.9,2.6,3.3,3.4c1.4,0.8,2.9,1.2,4.6,1.2c1.7,0,3.2-0.4,4.6-1.2c1.4-0.8,2.5-1.9,3.3-3.4c0.8-1.5,1.2-3.1,1.2-4.8
	c0-2.6-0.9-4.9-2.7-6.7C734.6,712.5,732.4,711.5,729.9,711.5 M729.9,708.6c3.6,0,6.6,1.3,9,3.9c2.2,2.4,3.2,5.2,3.2,8.5
	c0,3.3-1.1,6.1-3.4,8.6c-2.3,2.5-5.2,3.7-8.8,3.7c-3.6,0-6.5-1.2-8.8-3.7c-2.3-2.5-3.4-5.3-3.4-8.6c0-3.3,1.1-6.1,3.2-8.5
	C723.3,709.9,726.3,708.6,729.9,708.6z"/>
</svg>
